<svg width="549" height="111" viewBox="0 0 549 111" fill="none" xmlns="http://www.w3.org/2000/svg">
<path d="M533 67.4C530.4 73.2 526.5 77.1 518.8 77.1C510.4 77.1 503.6 70.6 503.6 57.8C503.6 45 510.4 38.6 518.8 38.6C527.2 38.6 534 47.2 534 57.8C534 59.1 533.9 60.3 533.7 61.5H548.6C548.7 60.3 548.8 59.1 548.8 57.8C548.8 38.6 535.3 26.5 518.7 26.5C502.1 26.5 488.6 37.5 488.6 57.8C488.6 78.1 502.1 89.1 518.7 89.1C533.9 89.1 543.1 81.8 546 71L533 67.4Z" fill="#214997"/>
<path d="M538.9 51.7H502.2V61.5H538.9V51.7Z" fill="#214997"/>
<path d="M203.2 67.4C200.6 73.2 196.7 77.1 189 77.1C180.6 77.1 173.8 70.6 173.8 57.8C173.8 45 180.6 38.6 189 38.6C197.4 38.6 204.2 47.2 204.2 57.8C204.2 59.1 204.1 60.3 203.9 61.5H218.9C219 60.3 219.1 59.1 219.1 57.8C219.1 38.6 205.6 26.5 189 26.5C172.4 26.5 158.9 37.5 158.9 57.8C158.9 78.1 172.4 89.1 189 89.1C204.2 89.1 213.4 81.8 216.3 71L203.2 67.4Z" fill="#214997"/>
<path d="M209.1 51.7H172.4V61.5H209.1V51.7Z" fill="#214997"/>
<path d="M134.5 67.4C131.9 73.2 128 77.1 120.3 77.1C111.9 77.1 105.1 70.6 105.1 57.8C105.1 45 111.9 38.6 120.3 38.6C128.7 38.6 135.5 47.2 135.5 57.8C135.5 59.1 135.4 60.3 135.2 61.5H150.1C150.2 60.3 150.3 59.1 150.3 57.8C150.3 38.6 136.8 26.5 120.2 26.5C103.6 26.5 90.1 37.5 90.1 57.8C90.1 78.1 103.6 89.1 120.2 89.1C135.4 89.1 144.6 81.8 147.5 71L134.5 67.4Z" fill="#214997"/>
<path d="M140.4 51.7H103.7V61.5H140.4V51.7Z" fill="#214997"/>
<path d="M264.8 26.6C257.1 26.6 250.2 30.6 245.4 37V27.6H229.7V110.4H245.4V79.2C250.2 85.6 257.1 89.6 264.8 89.6C279.2 89.6 291 75.5 291 58.1C290.9 40.7 279.2 26.6 264.8 26.6ZM260.4 77.8C252.1 77.8 245.3 69 245.3 58.2C245.3 47.4 252 38.6 260.4 38.6C268.7 38.6 275.5 47.4 275.5 58.2C275.5 69 268.8 77.8 260.4 77.8Z" fill="#214997"/>
<path d="M418.1 88C418.1 87.6 416.9 82.4 416.9 79.5V51C416.9 43.9 413.9 38.8 407.1 38.4C401 38.1 395.4 40.6 393 48.3V48.2L379.3 44.9C381.2 37 388.3 27 406.8 27C432.1 27 432.1 44.6 432.1 51V79.5C432.1 81.5 432.8 86.3 433.2 87.9L418.1 88Z" fill="#214997"/>
<path d="M400.5 88.6C389.5 89.7 377.5 84.1 377.5 71.8C377.5 64.2 382.6 56.9 398.6 54.8C412.2 53 417.2 49.9 417.3 49.8L417.8 59C417.6 59 411.4 61.8 401.3 63.5C394.9 64.6 392.7 68 392.7 71.8C392.7 74.1 394.3 78.7 403.4 78.7C410.2 78.7 417 73.2 416.9 64.2L423.8 66.6C423.8 72.5 418.5 86.9 400.5 88.6Z" fill="#214997"/>
<path d="M460.4 27.8H444.7V87.9H460.4V27.8Z" fill="#214997"/>
<path d="M484.3 27.8V40.7C484.3 40.7 460.4 37.3 460.4 56.4V38.6C460.4 38.6 467.7 23.2 484.3 27.8Z" fill="#214997"/>
<path d="M316.3 87.9014H301.1C301.1 87.9014 315.3 74.6879 315.4 61.8689C313.397 48.5 327.4 45.2398 329.4 44.5986C342.8 40.3028 347.4 36.0986 347.4 29.92C347.4 28.5943 346.4 17.8898 335.6 17.8898H316.2L316.3 50L316.2 87.9014L301 88V3L335.711 3.59862C348.738 3.26946 363.07 12.3787 362.5 29C362 43.58 352.976 48.0107 335.6 55.7552C320.835 60.4014 315.289 64.4118 316.2 87.1125L316.3 87.9014Z" fill="url(#paint0_linear_256_4)"/>
<path d="M346.4 50.5986L339.4 53.8486L332.4 56.5986L351.707 87.9986H371.1L346.4 50.5986Z" fill="url(#paint1_linear_256_4)"/>
<path d="M37.9902 0H0V15.7646H34.0432C49.7326 15.7646 62.4618 28.6357 62.4618 44.5C62.4618 60.3643 49.7326 73.2354 34.0432 73.2354H0V74.333V89H37.9902C62.3631 89 81.9996 69.0448 81.9996 44.5C82.0983 19.9552 62.3631 0 37.9902 0Z" fill="#214997"/>
<path d="M12.8616 48.9948C12.6158 48.7972 12.3701 48.5997 12.2062 48.5009C11.1412 47.7106 10.0763 46.8215 9.09321 45.8336C3.03107 51.8596 0 58.8735 0 66.7764C0 68.851 0.245758 70.9255 0.737283 73H5.40677C5.07909 71.9133 4.83333 70.7279 4.66949 69.5425H24.4124C24.4124 69.74 24.3305 70.0364 24.3305 70.234C24.3305 70.3328 24.3305 70.4315 24.2486 70.6291C24.1667 70.9255 24.1667 71.2218 24.0847 71.4194C24.0847 71.5182 24.0028 71.617 24.0028 71.8146C23.9209 72.1109 23.839 72.4073 23.7571 72.6049C23.7571 72.7036 23.6751 72.8024 23.6751 72.9012H28.3446C28.7542 71.2218 29 69.5425 29 67.8631C29 67.7643 29 67.6655 29 67.6655C29 67.3692 29 67.0728 29 66.7764C29 66.6777 29 66.6776 29 66.5789C29 66.0849 29 65.591 28.9181 65.0971C28.9181 64.8995 28.9181 64.7019 28.8362 64.5043C28.8362 64.208 28.8362 64.0104 28.7542 63.714C28.7542 63.6153 28.7542 63.6152 28.7542 63.5165C28.7542 63.1213 28.6723 62.825 28.5904 62.4298C28.5904 62.2323 28.5085 62.1335 28.5085 61.9359C28.4265 61.5407 28.3446 61.0468 28.2627 60.6516V60.5529C27.0339 55.0208 24.0847 49.8839 19.661 45.4385C19.5791 45.3397 19.4972 45.2409 19.4153 45.2409C19.0876 44.9445 18.7599 44.6482 18.4322 44.3518C18.2684 44.1542 18.0226 43.9567 17.8587 43.8579C17.613 43.6603 17.3672 43.4627 17.1215 43.2652C16.6299 42.87 16.1384 42.4749 15.6469 42.0797C15.1554 41.6846 14.6638 41.2894 14.2542 40.8943C14.0904 40.7955 14.0085 40.6967 13.9266 40.5979C13.5989 40.3016 13.2712 40.0052 12.9435 39.7088C12.7797 39.6101 12.6977 39.5113 12.5339 39.3137C12.2062 39.0173 11.9605 38.721 11.6328 38.4246C11.5508 38.3258 11.387 38.227 11.3051 38.0295C10.9774 37.7331 10.7316 37.338 10.404 37.0416C10.1582 36.7452 9.99435 36.5477 9.74858 36.2513H19.2514C18.2684 37.5355 17.3672 38.4246 16.0565 39.6101C16.3023 39.8076 16.548 40.0052 16.7119 40.104C17.7768 40.8943 18.8418 41.7834 19.8249 42.7712C25.887 36.7452 29 29.6326 29 21.7296C29 19.7539 28.7542 17.8769 28.4266 16H23.7571C24.0847 17.0867 24.3305 18.2721 24.4124 19.4575H4.58756C4.75141 18.2721 4.91525 17.1854 5.24293 16H0.573444C0.163839 17.8769 0 19.7539 0 21.7296C0.737283 30.9168 2.53955 35.0659 7.12712 40.5979L7.20903 40.6967C7.53671 41.0919 7.94632 41.487 8.274 41.8821C8.35593 41.9809 8.43785 42.0797 8.6017 42.1785C8.92938 42.5737 9.33898 42.9688 9.74858 43.2652C9.8305 43.364 9.99434 43.4627 10.0763 43.5615C10.4859 43.9567 10.8955 44.253 11.3051 44.6482C11.387 44.747 11.5508 44.8458 11.6328 44.9445C12.2062 45.4385 12.6977 45.8336 13.2712 46.2288C13.6808 46.5251 14.0904 46.9203 14.5 47.2166C14.6638 47.4142 14.9096 47.513 15.0734 47.7106C15.2373 47.9082 15.483 48.0069 15.6469 48.2045C15.8927 48.4021 16.1384 48.6984 16.4661 48.896C16.548 48.9948 16.6299 49.0936 16.7119 49.1924C17.0395 49.4887 17.2853 49.7851 17.613 50.0815L17.6949 50.1802C18.3503 50.8718 19.0056 51.6621 19.5791 52.4524H9.42091C10.4859 51.2669 11.387 50.279 12.8616 48.9948ZM6.47175 30.9168C5.57062 28.9411 4.99717 26.9653 4.66949 24.8908H24.3305C24.0028 26.9653 23.4294 29.0399 22.5283 30.9168H6.47175ZM22.6921 58.0832C23.1017 58.9723 23.4294 59.8614 23.6751 60.7504C23.7571 61.1456 23.839 61.4419 23.9209 61.8371C23.9209 61.9359 24.0028 62.0347 24.0028 62.1334C24.0847 62.4298 24.0847 62.7262 24.1667 63.0225C24.1667 63.2201 24.2486 63.4177 24.2486 63.5165C24.2486 63.714 24.3305 63.9116 24.3305 64.208H4.50565C4.75141 62.1335 5.32486 60.0589 6.14407 58.182H22.6921V58.0832Z" fill="url(#paint2_linear_256_4)"/>
<defs>
<linearGradient id="paint0_linear_256_4" x1="331.009" y1="3" x2="331.009" y2="88" gradientUnits="userSpaceOnUse">
<stop offset="0.480769" stop-color="#214997"/>
<stop offset="0.711538" stop-color="#214997" stop-opacity="0.9"/>
<stop offset="1" stop-color="#214997" stop-opacity="0.75"/>
</linearGradient>
<linearGradient id="paint1_linear_256_4" x1="351.5" y1="50.0986" x2="351.5" y2="87.9986" gradientUnits="userSpaceOnUse">
<stop offset="0.365385" stop-color="#214997"/>
<stop offset="0.639423" stop-color="#214997" stop-opacity="0.9"/>
<stop offset="1" stop-color="#214997" stop-opacity="0.75"/>
</linearGradient>
<linearGradient id="paint2_linear_256_4" x1="-9.5" y1="41.5" x2="40.5" y2="57" gradientUnits="userSpaceOnUse">
<stop offset="0.401471" stop-color="#214997"/>
<stop offset="0.842254" stop-color="#214997" stop-opacity="0.8"/>
</linearGradient>
</defs>
</svg>
